# xmcd
#
# Track frame offsets:
#	150
#	15149
#	37289
#	55483
#	82562
#	97972
#	119696
#	144491
#	170273
#	187955
#	208575
#	226434
#	241421
#	265686
#	287374
#	309933
#	340024
#
# Disc length: 4795 seconds
#
# Revision: 3
# Processed by: cddbd v1.5.2PL0 Copyright (c) Steve Scherf et al.
# Submitted via: EZCDAudioConverter 6.0.0.1
#
DISCID=d912b911
DTITLE=Various Artist - Akella Presents - Rockin' Blues - vol.27  CD1  New!
DYEAR=2013
DGENRE=Blues
TTITLE0=SCOTT ELLISON - King Of The Blues
TTITLE1=PAT McMANUS - Same Old Story
TTITLE2=The ROCKY ATHAS GROUP - Last of the Blues
TTITLE3=The BEAT DADDIES - Pale White Circle
TTITLE4=Dr.FEELGOOD - Second Opinion
TTITLE5=BLUESBALL - Fool
TTITLE6=BART WALKER BAND - Right Side Up
TTITLE7=STEVE TRACY and The CRAWLING KINGSNAKES - Tremble
TTITLE8=JOHN CAMPBELLJOHN - Punching Bag
TTITLE9=JAMES SOLBERG - Ever Seen A Rainbow
TTITLE10=BRANT PARKER - Just Don't Leave
TTITLE11=PEPE AHLQVIST H.A.R.P - Back To The River
TTITLE12=The MICK CLARKE BAND - One Horse Town
TTITLE13=BUDDAHEADS - Sisters Have Mercy
TTITLE14=FRED CHAPELIER and BILLY PRICE - A Nickel And A Nail
TTITLE15=SIR OLIVER MALLY - Hoochie Mama
TTITLE16=RUDY ROTTA - Many Years Ago
EXTD=
EXTT0=
EXTT1=
EXTT2=
EXTT3=
EXTT4=
EXTT5=
EXTT6=
EXTT7=
EXTT8=
EXTT9=
EXTT10=
EXTT11=
EXTT12=
EXTT13=
EXTT14=
EXTT15=
EXTT16=
PLAYORDER=
